<?xml version="1.0" encoding="utf-8"?>
<!-- Generator: Adobe Illustrator 24.0.2, SVG Export Plug-In . SVG Version: 6.00 Build 0)  -->
<svg version="1.1" id="Layer_1" xmlns="http://www.w3.org/2000/svg" xmlns:xlink="http://www.w3.org/1999/xlink" x="0px" y="0px"
	 viewBox="0 0 500 500" style="enable-background:new 0 0 500 500;" xml:space="preserve">
<style type="text/css">
	.st0{fill-rule:evenodd;clip-rule:evenodd;fill:#EF8321;}
	.st1{fill-rule:evenodd;clip-rule:evenodd;fill:#FEFEFE;}
</style>
<g>
	
		<ellipse transform="matrix(0.7071 -0.7071 0.7071 0.7071 -103.5536 250.0004)" class="st0" cx="250" cy="250" rx="189.19" ry="189.19"/>
	<g>
		<path class="st1" d="M339.51,362.49c-6.14,0-12.3-0.15-18.45,0.07c-2.96,0.1-3.79-0.83-3.84-3.77
			c-0.67-34.6-10.43-66.51-29.81-95.15c-29.43-43.49-70.33-69.51-122.14-78.23c-7.93-1.33-15.95-1.91-23.98-1.94
			c-2.5-0.01-3.17-0.92-3.15-3.32c0.11-12.8,0.12-25.61,0.01-38.41c-0.02-2.61,0.97-3.08,3.32-3.04
			c100.21,1.6,186.14,69.13,212.49,164.38c5.07,18.34,7.63,37.04,8.05,56.06c0.05,2.64-0.62,3.48-3.29,3.41
			C352.32,362.37,345.92,362.48,339.51,362.49z"/>
		<path class="st1" d="M264.72,362.51c-6.02,0-12.05-0.15-18.08,0.06c-2.82,0.1-3.49-0.77-3.59-3.55
			c-1.8-46.76-33.72-86.36-78.98-98.13c-7.55-1.96-15.27-3.01-23.06-3.2c-2.06-0.05-2.9-0.49-2.89-2.69
			c0.08-12.68,0.12-25.36-0.02-38.04c-0.03-2.84,1.52-2.57,3.33-2.55c22.99,0.34,44.79,5.71,64.97,16.61
			c45.01,24.31,71.17,62.07,78.83,112.61c0.81,5.32,1.13,10.72,1.13,16.14c0,2.16-0.71,2.81-2.81,2.77
			c-6.28-0.1-12.56-0.04-18.84-0.04C264.72,362.5,264.72,362.5,264.72,362.51z"/>
		<path class="st1" d="M138.18,332.09c-0.05-17.01,13.53-30.75,30.45-30.81c16.85-0.06,30.74,13.71,30.81,30.56
			c0.07,16.94-13.59,30.66-30.56,30.68C151.75,362.54,138.23,349.15,138.18,332.09z"/>
	</g>
</g>
</svg>
